<mxfile host="app.diagrams.net" modified="2024-02-26T01:46:55.542Z" agent="Mozilla/5.0 (Windows NT 10.0; Win64; x64) AppleWebKit/537.36 (KHTML, like Gecko) Chrome/121.0.0.0 Safari/537.36 Edg/121.0.0.0" version="23.1.6" etag="w0KvGtoFKcOpxpdWCXLQ" type="github">
  <diagram name="Page-1" id="2sYTOpI56xWShFO81CMl">
    <mxGraphModel>
      <root>
        <mxCell id="0" />
        <mxCell id="1" parent="0" />
      </root>
    </mxGraphModel>
  </diagram>
</mxfile>
